<svg width="50" height="32" viewBox="0 0 50 32" fill="none" xmlns="http://www.w3.org/2000/svg">
<g id="Vector">
<path d="M24.2902 10.2259V6.61701H25.7196C26.6686 6.71188 26.9609 6.87394 27.3613 7.2297C27.5389 7.3984 27.6747 7.60533 27.758 7.83432C27.8413 8.0633 27.87 8.30822 27.8418 8.54993C27.8341 8.80046 27.7671 9.0457 27.6461 9.26603C27.5251 9.4864 27.3535 9.6757 27.1451 9.81879C26.7687 10.1152 26.2161 10.2141 25.3833 10.2338H24.3022M26.3042 4.6999C26.4814 4.52633 26.6189 4.31726 26.7073 4.08677C26.7957 3.85629 26.833 3.60979 26.8167 3.36384C26.8366 3.11819 26.7989 2.87132 26.7066 2.64236C26.6142 2.41341 26.4697 2.20853 26.2842 2.04361C25.8542 1.74107 25.3285 1.60082 24.8027 1.64832H24.2902V5.1268H24.7426C25.2958 5.18649 25.852 5.046 26.3082 4.73152M38.0042 1.43092C36.875 1.32419 33.912 2.15428 33.5116 5.59718C34.7918 5.58315 36.0297 6.04935 36.9751 6.90161L41.1914 2.73139C40.3054 1.94964 39.175 1.49073 37.9882 1.43092M16.0778 7.32456L14.2799 3.26502L12.41 7.31666L16.0778 7.32456ZM33.5476 10.4117C32.9501 9.85175 32.4747 9.17733 32.1504 8.42969C31.8261 7.68202 31.6598 6.87691 31.6617 6.06362C31.6596 5.20376 31.8333 4.35232 32.1725 3.56036C32.5117 2.76838 33.0094 2.05217 33.6357 1.45464C33.6357 1.45464 29.8318 5.22957 29.5916 5.45093C29.3093 5.71691 29.0419 5.998 28.7908 6.29288C29.3095 6.85173 29.6091 7.57501 29.6356 8.33253C29.68 9.18634 29.3935 10.0248 28.8342 10.6775C28.2749 11.3302 27.4848 11.7482 26.6245 11.8466C25.8383 11.9243 25.0481 11.956 24.2581 11.9414H22.4563V0L18.24 4.15441V7.87005L20.1139 11.9217H18.1118L16.8426 9.03218H11.6492L10.2999 11.9335H8.33786L13.9436 0.0237169L9.73529 4.15441L4.09752 16.084H6.05953L8.98252 13.1866H12.5862L13.8435 16.0879H15.8455L18.248 13.74V16.0879H20.5624C21.3952 16.0879 23.3652 16.171 24.2862 15.1748L27.6736 11.8426C27.9603 12.8579 28.5127 13.7809 29.2753 14.5187C30.5245 15.7638 31.8339 16.1631 33.4475 16.3133C34.6633 16.313 35.8601 16.0156 36.9311 15.4476L41.1994 11.2418C40.2439 11.7949 39.1634 12.1034 38.0562 12.1391C37.2248 12.1696 36.3959 12.0317 35.6205 11.734C34.845 11.4362 34.1396 10.9849 33.5476 10.4078" fill="#A6A3F1"/>
<path d="M6.55211e-09 18.6593L0 19.2028L50 19.2028V18.6593H6.55211e-09Z" fill="#A6A3F1"/>
<path d="M1.48152 21.4895V25.0628H0.972995V21.4895H0V21.027H2.45051V21.4895H1.48152Z" fill="#A6A3F1"/>
<path d="M4.40449 22.6555H6.35048V21.027H6.85899V25.0628H6.35048V23.1259H4.40449V25.0628H3.89196V21.027H4.40449V22.6555Z" fill="#A6A3F1"/>
<path d="M8.68088 25.0628V21.027H10.8751V21.4895H9.1894V22.616H10.8271V23.0785H9.1894V24.6043H10.8751V25.0628H8.68088Z" fill="#A6A3F1"/>
<path d="M17.6941 24.0469H15.8082L15.3437 25.0589H14.8071L16.7571 20.8531L18.7071 25.0589H18.1586L17.6941 24.0469ZM17.4819 23.5884L16.7571 21.9559L16.0324 23.5884H17.4859H17.4819Z" fill="#A6A3F1"/>
<path d="M22.0545 25.1498L20.8293 22.3986H20.8173L20.3408 25.0628H19.8162L20.6491 20.857L22.0545 24.0351L23.46 20.857L24.2928 25.0628H23.7683L23.2918 22.3986H23.2798L22.0545 25.1498Z" fill="#A6A3F1"/>
<path d="M25.8344 25.0628V21.027H28.0287V21.4895H26.3429V22.616H27.9806V23.0785H26.3429V24.6043H28.0287V25.0628H25.8344Z" fill="#A6A3F1"/>
<path d="M30.9917 23.3078L32.281 25.0628H31.6644L30.4631 23.3552H30.2509V25.0628H29.7424V21.027H30.7354C30.8527 21.0355 30.9692 21.0526 31.0838 21.0784C31.2087 21.1033 31.3288 21.1474 31.4401 21.2088C31.6079 21.3017 31.7464 21.4385 31.8405 21.6041C31.9354 21.775 31.9847 21.9666 31.9847 22.1614C31.9907 22.4387 31.8938 22.7086 31.7124 22.9204C31.5346 23.1311 31.28 23.2645 31.0037 23.2919M30.2509 21.4776V22.9401H30.4151C30.5492 22.9416 30.683 22.9323 30.8155 22.9125C30.9328 22.8941 31.0473 22.8609 31.1558 22.8137C31.2684 22.7684 31.3625 22.6878 31.4241 22.5844C31.4906 22.4634 31.5226 22.3267 31.5162 22.1891C31.5162 21.7069 31.145 21.4657 30.4031 21.4657H30.2669L30.2509 21.4776Z" fill="#A6A3F1"/>
<path d="M34.263 21.027H33.7545V25.0628H34.263V21.027Z" fill="#A6A3F1"/>
<path d="M39.0879 21.2128V21.7978C38.7928 21.536 38.4076 21.3947 38.0108 21.4025C37.7962 21.3994 37.5832 21.4411 37.3858 21.5249C37.1884 21.6086 37.011 21.7326 36.8657 21.8887C36.7135 22.0422 36.5942 22.224 36.5137 22.4235C36.4332 22.6229 36.3936 22.8361 36.3972 23.0508C36.394 23.2639 36.4332 23.4756 36.5129 23.6736C36.5926 23.8717 36.7111 24.0523 36.8617 24.205C37.0062 24.3614 37.1824 24.4857 37.3794 24.5695C37.576 24.6533 37.7886 24.6948 38.0028 24.6912C38.4064 24.692 38.7952 24.5424 39.0919 24.2722V24.8652C38.6855 25.0969 38.2139 25.191 37.7482 25.1332C37.2825 25.0754 36.8489 24.8688 36.5133 24.545C36.3103 24.3553 36.1501 24.1257 36.0424 23.8711C35.9347 23.6165 35.8827 23.3424 35.8887 23.0666C35.8835 22.7852 35.9371 22.5057 36.0468 22.2458C36.1561 21.9859 36.3191 21.7512 36.5253 21.5567C36.7263 21.3568 36.9662 21.1991 37.2304 21.0932C37.4943 20.9872 37.7778 20.9351 38.0629 20.94C38.4249 20.9338 38.7816 21.0283 39.0919 21.2128" fill="#A6A3F1"/>
<path d="M43.2322 24.0469H41.3583L40.8938 25.0589H40.3452L42.2952 20.8531L44.2372 25.0628H43.6887L43.2322 24.0469ZM43.036 23.5924L42.3113 21.9599L41.5865 23.5924H43.036Z" fill="#A6A3F1"/>
<path d="M45.6226 25.0628V20.8333L48.6938 24.0074V21.027H49.2023V25.2288L46.1352 22.0547V25.0628H45.6226Z" fill="#A6A3F1"/>
<path d="M1.88991 31.834V27.7982H2.39042C2.57982 27.796 2.76881 27.8119 2.955 27.8456C3.11836 27.8765 3.27613 27.9311 3.42348 28.0077C3.57043 28.0846 3.68935 28.2048 3.76383 28.3516C3.84871 28.5237 3.88956 28.7136 3.88395 28.905C3.88195 29.0626 3.8407 29.2174 3.76383 29.3556C3.69576 29.4923 3.58284 29.6024 3.4435 29.6678C3.67774 29.7101 3.88675 29.8387 4.0281 30.0276C4.17945 30.215 4.26154 30.4479 4.26034 30.6877C4.27275 30.8513 4.24232 31.0153 4.17225 31.1641C4.10217 31.3128 3.99446 31.4414 3.85993 31.5375C3.56082 31.7316 3.20846 31.8296 2.85089 31.8182H1.89792L1.88991 31.834ZM2.39843 28.2488V29.5809H2.52656C2.75159 29.5937 2.97582 29.5459 3.17522 29.4425C3.25731 29.3811 3.32137 29.2994 3.36141 29.2058C3.40145 29.1122 3.41587 29.0098 3.40346 28.9089C3.41627 28.8095 3.40226 28.7086 3.36302 28.6163C3.32338 28.524 3.26011 28.4436 3.17923 28.3832C2.98183 28.2822 2.7604 28.2358 2.53857 28.2488H2.39843ZM2.39843 31.3834H2.79884C3.4423 31.3834 3.76383 31.1462 3.76383 30.6719C3.76703 30.5504 3.73379 30.4307 3.66773 30.328C3.60526 30.2346 3.51597 30.1617 3.41146 30.1185C3.30495 30.0727 3.19365 30.0396 3.07913 30.0196C2.95941 29.9943 2.83728 29.9798 2.71476 29.9762H2.39843V31.3834Z" fill="#A6A3F1"/>
<path d="M6.26239 28.3318C6.46059 28.136 6.69603 27.9807 6.95509 27.8748C7.21376 27.7688 7.49164 27.7143 7.77192 27.7143C8.05221 27.7143 8.3301 27.7688 8.58876 27.8748C8.84783 27.9807 9.08327 28.136 9.28147 28.3318C9.48047 28.5275 9.63824 28.7601 9.74595 29.0161C9.85366 29.2722 9.90891 29.5467 9.90891 29.824C9.90891 30.1012 9.85366 30.3757 9.74595 30.6318C9.63824 30.8879 9.48047 31.1204 9.28147 31.3162C8.87385 31.7041 8.3301 31.9208 7.76392 31.9208C7.19774 31.9208 6.65398 31.7041 6.24637 31.3162C6.04736 31.1204 5.88961 30.8879 5.7819 30.6318C5.67419 30.3757 5.61892 30.1012 5.61892 29.824C5.61892 29.5467 5.67419 29.2722 5.7819 29.0161C5.88961 28.7601 6.04736 28.5275 6.24637 28.3318M6.60674 30.9762C6.75609 31.128 6.93467 31.2487 7.13207 31.3311C7.32947 31.4135 7.54169 31.456 7.75591 31.456C7.97013 31.456 8.18235 31.4135 8.37975 31.3311C8.57715 31.2487 8.75573 31.128 8.90508 30.9762C9.06365 30.827 9.18978 30.6472 9.27507 30.448C9.36035 30.2487 9.4036 30.0343 9.40159 29.818C9.4056 29.6048 9.36676 29.393 9.28708 29.1948C9.2074 28.9966 9.08847 28.8161 8.93712 28.6638C8.6264 28.3587 8.20597 28.1874 7.76792 28.1874C7.32987 28.1874 6.90945 28.3587 6.59873 28.6638C6.44777 28.8162 6.32885 28.9968 6.24917 29.1949C6.16949 29.393 6.13025 29.6049 6.13425 29.818C6.13025 30.0332 6.17069 30.2469 6.25358 30.4461C6.33606 30.6452 6.45898 30.8256 6.61474 30.9762" fill="#A6A3F1"/>
<path d="M11.8361 28.3318C12.0343 28.136 12.2697 27.9807 12.5288 27.8748C12.7875 27.7688 13.0654 27.7143 13.3456 27.7143C13.6259 27.7143 13.9038 27.7688 14.1625 27.8748C14.4215 27.9807 14.657 28.136 14.8552 28.3318C15.0542 28.5275 15.2119 28.7601 15.3197 29.0161C15.4274 29.2722 15.4826 29.5467 15.4826 29.824C15.4826 30.1012 15.4274 30.3757 15.3197 30.6318C15.2119 30.8879 15.0542 31.1204 14.8552 31.3162C14.4476 31.7041 13.9038 31.9208 13.3376 31.9208C12.7715 31.9208 12.2277 31.7041 11.8201 31.3162C11.6211 31.1204 11.4633 30.8879 11.3556 30.6318C11.2479 30.3757 11.1926 30.1012 11.1926 29.824C11.1926 29.5467 11.2479 29.2722 11.3556 29.0161C11.4633 28.7601 11.6211 28.5275 11.8201 28.3318M12.1804 30.9762C12.3298 31.128 12.5084 31.2487 12.7058 31.3311C12.9032 31.4135 13.1154 31.456 13.3296 31.456C13.5438 31.456 13.7561 31.4135 13.9535 31.3311C14.1509 31.2487 14.3294 31.128 14.4788 30.9762C14.6354 30.8259 14.7591 30.6457 14.8424 30.4465C14.9257 30.2474 14.9669 30.0335 14.9633 29.818C14.9673 29.6049 14.9281 29.393 14.8484 29.1949C14.7687 28.9968 14.6498 28.8162 14.4988 28.6638C14.1881 28.3587 13.7677 28.1874 13.3296 28.1874C12.8916 28.1874 12.4711 28.3587 12.1604 28.6638C12.0095 28.8162 11.8906 28.9968 11.8109 29.1949C11.7312 29.393 11.6919 29.6049 11.696 29.818C11.6919 30.0332 11.7324 30.2469 11.8153 30.4461C11.8978 30.6452 12.0207 30.8256 12.1764 30.9762" fill="#A6A3F1"/>
<path d="M17.574 29.5493L19.3077 27.7982H19.9764L18.1385 29.6125L20.0084 31.834H19.3197L17.7782 29.9564L17.574 30.1501V31.834H17.0654V27.7982H17.574V29.5493Z" fill="#A6A3F1"/>
<path d="M27.0196 27.9998V28.5848C26.7241 28.323 26.3393 28.1817 25.9425 28.1895C25.7279 28.1864 25.5145 28.2281 25.3175 28.3118C25.1201 28.3956 24.9427 28.5196 24.7974 28.6757C24.4978 28.9889 24.3313 29.4032 24.3313 29.8339C24.3313 30.2645 24.4978 30.6788 24.7974 30.992C24.9415 31.1486 25.1181 31.273 25.3147 31.3568C25.5117 31.4406 25.7243 31.4821 25.9385 31.4782C26.3413 31.4727 26.7273 31.3175 27.0196 31.0434V31.6363C26.6132 31.8681 26.1415 31.9622 25.6759 31.9044C25.2102 31.8466 24.7765 31.64 24.441 31.3162C24.238 31.1264 24.0778 30.8969 23.9701 30.6422C23.8624 30.3876 23.8103 30.1136 23.8164 29.8378C23.8103 29.5566 23.8636 29.2773 23.9725 29.0174C24.0814 28.7575 24.2436 28.5227 24.449 28.3278C24.65 28.128 24.8899 27.9703 25.1541 27.8644C25.418 27.7584 25.7015 27.7063 25.9866 27.7112C26.3517 27.709 26.7097 27.809 27.0196 27.9998Z" fill="#A6A3F1"/>
<path d="M28.7213 31.834V27.7982H30.9156V28.2606H29.2299V29.3911H30.8675V29.8497H29.2299V31.3755H30.9156V31.834H28.7213Z" fill="#A6A3F1"/>
<path d="M32.5773 31.834V27.6084L35.6484 30.7786V27.7982H36.1569V32L33.0898 28.8259V31.834H32.5773Z" fill="#A6A3F1"/>
<path d="M39.0679 28.2606V31.834H38.5594V28.2606H37.5864V27.7982H40.0369V28.2606H39.0679Z" fill="#A6A3F1"/>
<path d="M41.5224 31.834V27.7982H43.7207V28.2606H42.0349V29.3911H43.6686V29.8497H42.0349V31.3755H43.7207V31.834H41.5224Z" fill="#A6A3F1"/>
<path d="M46.6837 30.0789L47.9731 31.834H47.3564L46.1552 30.1264H45.943V31.834H45.4385V27.7982H46.4315C46.5488 27.8069 46.6653 27.824 46.7798 27.8495C46.9048 27.8748 47.0249 27.9188 47.1362 27.98C47.304 28.073 47.4425 28.2098 47.5366 28.3753C47.6315 28.5461 47.6808 28.7378 47.6808 28.9326C47.6868 29.2099 47.5899 29.4798 47.4085 29.6916C47.2307 29.9022 46.976 30.0356 46.6997 30.0631M45.959 28.233V29.6955H46.1232C46.2573 29.697 46.391 29.6877 46.5236 29.6678C46.6409 29.6496 46.7554 29.6163 46.8639 29.569C46.9732 29.5239 47.0645 29.4447 47.1242 29.3437C47.1911 29.2228 47.2227 29.086 47.2163 28.9484C47.2163 28.4662 46.8451 28.2251 46.1031 28.2251H45.967L45.959 28.233Z" fill="#A6A3F1"/>
</g>
</svg>
