<svg width="22" height="23" viewBox="0 0 22 23" fill="none" xmlns="http://www.w3.org/2000/svg">
<g id="Vector">
<path id="Vector_2" d="M2.18014 16.6202C2.36182 16.5655 2.53914 16.5198 2.7121 16.4833C2.88506 16.4468 3.0711 16.4286 3.27022 16.4286H4.36029V3.28571H3.27022C2.96136 3.28571 2.70265 3.39086 2.49408 3.60114C2.28552 3.81143 2.18087 4.07136 2.18014 4.38095V16.6202ZM3.27022 23C2.36182 23 1.58969 22.6806 0.953813 22.0417C0.317938 21.4028 0 20.627 0 19.7143V4.38095C0 3.46825 0.317938 2.69246 0.953813 2.05357C1.58969 1.41468 2.36182 1.09524 3.27022 1.09524H9.81065C10.1195 1.09524 10.3786 1.20038 10.5879 1.41067C10.7972 1.62095 10.9014 1.88089 10.9007 2.19048C10.9 2.50006 10.7953 2.76037 10.5868 2.97138C10.3782 3.1824 10.1195 3.28717 9.81065 3.28571H6.54043V16.4286H13.0809V14.2381C13.0809 13.9278 13.1855 13.6678 13.3948 13.4583C13.6041 13.2487 13.8628 13.1436 14.1709 13.1429C14.4791 13.1421 14.7381 13.2473 14.9482 13.4583C15.1582 13.6693 15.2625 13.9292 15.261 14.2381V18.619H3.27022C2.96136 18.619 2.70265 18.7242 2.49408 18.9345C2.28552 19.1448 2.18087 19.4047 2.18014 19.7143C2.17942 20.0239 2.28406 20.2842 2.49408 20.4952C2.70411 20.7062 2.96282 20.811 3.27022 20.8095H17.4412V13.1429C17.4412 12.8325 17.5458 12.5726 17.7551 12.363C17.9644 12.1535 18.2231 12.0483 18.5312 12.0476C18.8393 12.0469 19.0984 12.152 19.3084 12.363C19.5185 12.5741 19.6227 12.834 19.6213 13.1429V20.8095C19.6213 21.4119 19.408 21.9278 18.9814 22.3571C18.5548 22.7864 18.0414 23.0007 17.4412 23H3.27022ZM15.806 12.0476C15.806 10.3683 16.3874 8.94444 17.5502 7.77619C18.7129 6.60794 20.13 6.02381 21.8014 6.02381C20.13 6.02381 18.7129 5.43968 17.5502 4.27143C16.3874 3.10317 15.806 1.67936 15.806 0C15.806 1.67936 15.2247 3.10317 14.0619 4.27143C12.8992 5.43968 11.4821 6.02381 9.81065 6.02381C11.4821 6.02381 12.8992 6.60794 14.0619 7.77619C15.2247 8.94444 15.806 10.3683 15.806 12.0476Z" fill="#1C042E"/>
</g>
</svg>
