<svg width="40" height="40" viewBox="0 0 40 40" fill="none" xmlns="http://www.w3.org/2000/svg">
<g id="ri:amazon-fill">
<path id="Vector" d="M36.6617 30.3833C36.6617 31.595 35.9867 33.9283 34.47 35.21C34.1667 35.4433 33.8633 35.3117 33.9967 34.9717C34.4383 33.8917 35.4483 31.3933 34.975 30.8183C34.64 30.3817 33.2567 30.415 32.0767 30.515C31.5383 30.5833 31.065 30.615 30.6983 30.69C30.3583 30.7167 30.29 30.4183 30.63 30.185C31.0729 29.8726 31.5623 29.6319 32.08 29.4717C33.9967 28.8983 36.2117 29.2433 36.53 29.61C36.59 29.68 36.6617 29.8783 36.6617 30.3833ZM33.4583 32.5383C33.0201 32.8763 32.5584 33.1826 32.0767 33.455C28.54 35.58 23.9583 36.6933 19.98 36.6933C13.575 36.6933 7.84667 34.3317 3.50001 30.38C3.12667 30.0767 3.43501 29.6367 3.87167 29.875C8.55501 32.6083 14.3517 34.2617 20.3517 34.2617C24.1283 34.2617 28.1983 33.555 32.0767 32.035C32.3483 31.9333 32.6517 31.795 32.9167 31.6983C33.5283 31.4233 34.0667 32.1017 33.4583 32.5383ZM23.175 14.155C23.175 12.42 23.245 11.3983 22.67 10.5217C22.16 9.8 21.2817 9.36667 20.055 9.435C18.725 9.50833 17.2967 10.38 16.9333 11.9783C16.8617 12.345 16.6483 12.705 16.205 12.7833L12.1467 12.2667C11.8567 12.2 11.415 11.9783 11.56 11.3983C12.4317 6.81333 16.35 5.215 20.0567 5H20.9267C22.96 5 25.5733 5.58167 27.245 7.10667C29.2733 9 29.0567 11.5433 29.0567 14.3067V20.8517C29.0567 22.815 29.8533 23.685 30.6533 24.7083C30.87 25.0733 30.945 25.5033 30.58 25.8C29.53 26.7361 28.4649 27.6551 27.385 28.5567C27.0933 28.7783 26.57 28.8017 26.3683 28.6317C25.085 27.5567 24.7717 26.96 23.9767 25.8683C22.5933 27.32 21.4317 28.1217 20.05 28.5567C19.0785 28.8039 18.0791 28.9249 17.0767 28.9167C13.5933 28.9167 10.835 26.745 10.835 22.45C10.835 19.035 12.6517 16.7133 15.335 15.615C18.0183 14.515 21.9183 14.165 23.175 14.1583M22.38 22.8117C23.2467 21.3583 23.175 20.1683 23.175 17.5033C22.0883 17.5033 20.9983 17.5783 20.0567 17.8C18.315 18.305 16.9317 19.4 16.9317 21.725C16.9317 23.5417 17.8783 24.7783 19.475 24.7783C19.695 24.7783 19.8883 24.7533 20.055 24.7033C21.1717 24.3933 21.8683 23.8333 22.38 22.8117Z" fill="#A6A3F1"/>
</g>
</svg>
