<svg width="28" height="28" viewBox="0 0 28 28" fill="none" xmlns="http://www.w3.org/2000/svg">
<g id="basil:book-outline">
<path id="Vector" d="M9.625 9.33331C9.625 9.10125 9.71719 8.87869 9.88128 8.71459C10.0454 8.5505 10.2679 8.45831 10.5 8.45831H18.6667C18.8987 8.45831 19.1213 8.5505 19.2854 8.71459C19.4495 8.87869 19.5417 9.10125 19.5417 9.33331C19.5417 9.56538 19.4495 9.78794 19.2854 9.95203C19.1213 10.1161 18.8987 10.2083 18.6667 10.2083H10.5C10.2679 10.2083 10.0454 10.1161 9.88128 9.95203C9.71719 9.78794 9.625 9.56538 9.625 9.33331ZM10.5 11.9583C10.2679 11.9583 10.0454 12.0505 9.88128 12.2146C9.71719 12.3787 9.625 12.6012 9.625 12.8333C9.625 13.0654 9.71719 13.2879 9.88128 13.452C10.0454 13.6161 10.2679 13.7083 10.5 13.7083H16.3333C16.5654 13.7083 16.788 13.6161 16.9521 13.452C17.1161 13.2879 17.2083 13.0654 17.2083 12.8333C17.2083 12.6012 17.1161 12.3787 16.9521 12.2146C16.788 12.0505 16.5654 11.9583 16.3333 11.9583H10.5Z" fill="white"/>
<path id="Vector_2" fill-rule="evenodd" clip-rule="evenodd" d="M9.91667 3.79169C8.44693 3.79169 7.03738 4.37554 5.99812 5.4148C4.95885 6.45407 4.375 7.86361 4.375 9.33335V21C4.375 22.1603 4.83594 23.2731 5.65641 24.0936C6.47688 24.9141 7.58968 25.375 8.75 25.375H21.5833C22.1248 25.375 22.6441 25.1599 23.027 24.777C23.4099 24.3941 23.625 23.8748 23.625 23.3334V5.83335C23.625 5.29187 23.4099 4.77256 23.027 4.38968C22.6441 4.00679 22.1248 3.79169 21.5833 3.79169H9.91667ZM21.875 16.625V5.83335C21.875 5.756 21.8443 5.68181 21.7896 5.62711C21.7349 5.57242 21.6607 5.54169 21.5833 5.54169H9.91667C8.91105 5.54169 7.94663 5.94117 7.23555 6.65224C6.52448 7.36332 6.125 8.32774 6.125 9.33335V17.5C6.8815 16.9305 7.80311 16.6233 8.75 16.625H21.875ZM21.875 18.375H8.75C8.05381 18.375 7.38613 18.6516 6.89384 19.1439C6.40156 19.6361 6.125 20.3038 6.125 21C6.125 21.6962 6.40156 22.3639 6.89384 22.8562C7.38613 23.3485 8.05381 23.625 8.75 23.625H21.5833C21.6607 23.625 21.7349 23.5943 21.7896 23.5396C21.8443 23.4849 21.875 23.4107 21.875 23.3334V18.375Z" fill="white"/>
</g>
</svg>
