<svg width="28" height="27" viewBox="0 0 28 27" fill="none" xmlns="http://www.w3.org/2000/svg">
<g id="fluent-emoji-high-contrast:cross-mark" clip-path="url(#clip0_100_145)">
<path id="Vector" d="M22.9466 0.845755C23.1751 0.602455 23.4497 0.407759 23.7542 0.273175C24.0587 0.138591 24.3868 0.0668498 24.7193 0.0621929C25.0518 0.0575361 25.3818 0.120058 25.6899 0.246062C25.9979 0.372067 26.2778 0.558997 26.5129 0.795804C26.748 1.03261 26.9336 1.31449 27.0587 1.62477C27.1838 1.93506 27.2459 2.26746 27.2413 2.60232C27.2366 2.93718 27.1654 3.26772 27.0318 3.57438C26.8982 3.88104 26.7049 4.15761 26.4633 4.38774L19.1746 11.7289C19.1649 11.7386 19.1573 11.7502 19.152 11.7628C19.1468 11.7755 19.1441 11.7891 19.1441 11.8029C19.1441 11.8166 19.1468 11.8302 19.152 11.8429C19.1573 11.8556 19.1649 11.8671 19.1746 11.8768L26.4633 19.218C26.6974 19.4499 26.8836 19.7262 27.0112 20.031C27.1387 20.3358 27.2051 20.663 27.2065 20.9937C27.2079 21.3245 27.1442 21.6522 27.0192 21.9581C26.8942 22.2639 26.7103 22.5418 26.4781 22.7757C26.2459 23.0096 25.9701 23.1949 25.6664 23.3209C25.3628 23.4469 25.0374 23.5111 24.709 23.5097C24.3807 23.5084 24.0558 23.4417 23.7532 23.3133C23.4505 23.1849 23.1761 22.9974 22.9458 22.7616L15.6571 15.4204C15.6474 15.4107 15.636 15.403 15.6234 15.3977C15.6108 15.3925 15.5973 15.3898 15.5837 15.3898C15.57 15.3898 15.5565 15.3925 15.544 15.3977C15.5314 15.403 15.5199 15.4107 15.5103 15.4204L8.22156 22.7616C7.99128 22.9974 7.71693 23.185 7.41433 23.3134C7.11173 23.4419 6.78688 23.5088 6.45849 23.5102C6.13011 23.5115 5.80471 23.4474 5.50105 23.3215C5.1974 23.1956 4.92149 23.0104 4.68926 22.7765C4.45703 22.5427 4.27307 22.2649 4.14799 21.959C4.0229 21.6532 3.95917 21.3255 3.96047 20.9947C3.96177 20.664 4.02807 20.3368 4.15555 20.032C4.28303 19.7272 4.46917 19.4508 4.70323 19.2188L11.992 11.8776C12.0016 11.8679 12.0093 11.8564 12.0145 11.8437C12.0197 11.831 12.0224 11.8174 12.0224 11.8037C12.0224 11.79 12.0197 11.7764 12.0145 11.7637C12.0093 11.751 12.0016 11.7395 11.992 11.7298L4.70323 4.38858C4.24293 3.91746 3.98611 3.28224 3.9887 2.62127C3.9913 1.9603 4.2531 1.32714 4.71708 0.859704C5.18107 0.39227 5.80964 0.128433 6.46588 0.125664C7.12213 0.122895 7.75287 0.381418 8.22073 0.84492L15.5095 8.18613C15.5191 8.19585 15.5305 8.20356 15.5431 8.20882C15.5557 8.21409 15.5692 8.2168 15.5829 8.2168C15.5965 8.2168 15.61 8.21409 15.6226 8.20882C15.6352 8.20356 15.6466 8.19585 15.6562 8.18613L22.9466 0.845755Z" fill="#B9D9EC"/>
</g>
<defs>
<clipPath id="clip0_100_145">
<rect width="26.5347" height="26.7257" fill="white" transform="translate(0.643616 0.0619507)"/>
</clipPath>
</defs>
</svg>
