<svg width="23" height="24" viewBox="0 0 23 24" fill="none" xmlns="http://www.w3.org/2000/svg">
<path id="Vector" d="M3.28571 3.79444C3.28571 2.9234 3.63189 2.08803 4.24808 1.47211C4.86427 0.856194 5.7 0.510175 6.57143 0.510175C7.44285 0.510175 8.27859 0.856194 8.89478 1.47211C9.51097 2.08803 9.85714 2.9234 9.85714 3.79444C9.85714 4.66548 9.51097 5.50084 8.89478 6.11676C8.27859 6.73268 7.44285 7.0787 6.57143 7.0787C5.7 7.0787 4.86427 6.73268 4.24808 6.11676C3.63189 5.50084 3.28571 4.66548 3.28571 3.79444ZM6.57143 2.15231C6.13572 2.15231 5.71785 2.32531 5.40975 2.63327C5.10166 2.94123 4.92857 3.35892 4.92857 3.79444C4.92857 4.22996 5.10166 4.64764 5.40975 4.9556C5.71785 5.26356 6.13572 5.43657 6.57143 5.43657C7.00714 5.43657 7.42501 5.26356 7.7331 4.9556C8.0412 4.64764 8.21429 4.22996 8.21429 3.79444C8.21429 3.35892 8.0412 2.94123 7.7331 2.63327C7.42501 2.32531 7.00714 2.15231 6.57143 2.15231ZM14.4226 6.39557C14.0785 6.13315 13.7895 5.80533 13.5725 5.43095C13.3554 5.05657 13.2146 4.64301 13.1579 4.21403C13.1013 3.78505 13.13 3.34912 13.2424 2.93127C13.3548 2.51342 13.5488 2.12189 13.813 1.77919C14.0773 1.43649 14.4068 1.14937 14.7824 0.934324C15.158 0.719277 15.5725 0.580546 16.0019 0.526102C16.4314 0.471658 16.8674 0.502574 17.2848 0.617074C17.7023 0.731573 18.093 0.9274 18.4345 1.1933C19.1069 1.73094 19.5413 2.51094 19.6442 3.36546C19.7471 4.21999 19.5103 5.08074 18.9848 5.76252C18.4592 6.4443 17.6869 6.89262 16.834 7.01101C15.9811 7.1294 15.1142 6.9084 14.4226 6.39557ZM16.4286 2.15231C15.9929 2.15231 15.575 2.32531 15.2669 2.63327C14.9588 2.94123 14.7857 3.35892 14.7857 3.79444C14.7857 4.22996 14.9588 4.64764 15.2669 4.9556C15.575 5.26356 15.9929 5.43657 16.4286 5.43657C16.8643 5.43657 17.2822 5.26356 17.5902 4.9556C17.8983 4.64764 18.0714 4.22996 18.0714 3.79444C18.0714 3.35892 17.8983 2.94123 17.5902 2.63327C17.2822 2.32531 16.8643 2.15231 16.4286 2.15231ZM2.46429 8.72083H6.85071C6.67 9.23481 6.57143 9.78821 6.57143 10.363H2.46429C2.24643 10.363 2.0375 10.4495 1.88345 10.6034C1.7294 10.7574 1.64286 10.9663 1.64286 11.184C1.64286 12.5256 2.17679 13.5208 3.01957 14.1973C3.40729 14.5093 3.87221 14.7606 4.39793 14.9445C4.01187 15.3547 3.71437 15.8399 3.52393 16.3699C2.97214 16.1491 2.45571 15.8487 1.99114 15.4782C0.755714 14.4847 0 13.0166 0 11.184C0 10.5307 0.259629 9.90422 0.721773 9.44228C1.18392 8.98034 1.81072 8.72083 2.46429 8.72083ZM8.65457 8.72083C8.21886 9.47558 8.10095 10.3724 8.32678 11.2141C8.55262 12.0557 9.1037 12.7732 9.85879 13.2088C10.6139 13.6443 11.5111 13.7621 12.3532 13.5364C13.1952 13.3107 13.913 12.7598 14.3487 12.0051C14.7844 11.2503 14.9023 10.3535 14.6765 9.51183C14.4507 8.67017 13.8996 7.95267 13.1445 7.51715C12.3894 7.08163 11.4922 6.96377 10.6501 7.1895C9.80811 7.41524 9.09028 7.96607 8.65457 8.72083ZM11.132 8.76188C11.3727 8.70753 11.6226 8.70791 11.8631 8.763C12.1036 8.81809 12.3287 8.92648 12.5217 9.08017C12.7148 9.23385 12.8708 9.42891 12.9783 9.65094C13.0858 9.87297 13.142 10.1163 13.1429 10.363C13.1429 10.4899 13.1292 10.6126 13.1018 10.7308C13.0359 11.0164 12.8947 11.2791 12.6929 11.4918C12.4911 11.7044 12.2361 11.8592 11.9543 11.9401C11.6724 12.0209 11.3741 12.0249 11.0902 11.9517C10.8063 11.8784 10.5472 11.7305 10.3398 11.5233C10.1324 11.3162 9.98419 11.0573 9.91064 10.7736C9.83709 10.4899 9.84084 10.1917 9.92151 9.90989C10.0022 9.62812 10.1568 9.37307 10.3694 9.17119C10.582 8.96932 10.8463 8.828 11.132 8.76188ZM19.9788 14.1973C19.5911 14.5093 19.1261 14.7606 18.6004 14.9445C18.9859 15.3548 19.2828 15.84 19.4728 16.3699C20.0314 16.1416 20.5489 15.8444 21.0072 15.4782C22.2443 14.4847 23 13.0166 23 11.184C23 10.5307 22.7404 9.90422 22.2782 9.44228C21.8161 8.98034 21.1893 8.72083 20.5357 8.72083H16.1493C16.33 9.23481 16.4286 9.78821 16.4286 10.363H20.5357C20.7536 10.363 20.9625 10.4495 21.1166 10.6034C21.2706 10.7574 21.3571 10.9663 21.3571 11.184C21.3571 12.5256 20.8216 13.5208 19.9788 14.1973ZM15.6071 15.2893C16.2607 15.2893 16.8875 15.5489 17.3497 16.0108C17.8118 16.4727 18.0714 17.0993 18.0714 17.7525C18.0714 19.5852 17.3174 21.0532 16.0803 22.0467C14.8629 23.0238 13.2299 23.5 11.5 23.5C9.77007 23.5 8.13707 23.0238 6.91971 22.0467C5.68429 21.0532 4.92857 19.5852 4.92857 17.7525C4.9277 17.4288 4.99085 17.1081 5.11439 16.8089C5.23792 16.5097 5.41941 16.2378 5.64841 16.0089C5.87741 15.78 6.14942 15.5986 6.44879 15.4751C6.74816 15.3516 7.069 15.2885 7.39286 15.2893H15.6071ZM15.6071 16.9315H7.39286C7.175 16.9315 6.96607 17.018 6.81202 17.172C6.65797 17.3259 6.57143 17.5348 6.57143 17.7525C6.57143 19.0942 7.10536 20.0893 7.94814 20.7659C8.81229 21.4588 10.0543 21.8579 11.5 21.8579C12.9457 21.8579 14.1877 21.4588 15.0519 20.7659C15.8946 20.0893 16.4286 19.0942 16.4286 17.7525C16.4286 17.5348 16.342 17.3259 16.188 17.172C16.0339 17.018 15.825 16.9315 15.6071 16.9315Z" fill="white"/>
</svg>
