<svg width="30" height="30" viewBox="0 0 30 30" fill="none" xmlns="http://www.w3.org/2000/svg">
<path id="Vector" d="M8.46454 8.88889C9.62008 8.88889 10.7283 8.42064 11.5454 7.58714C12.3625 6.75365 12.8215 5.62318 12.8215 4.44444C12.8215 3.2657 12.3625 2.13524 11.5454 1.30175C10.7283 0.468252 9.62008 0 8.46454 0C7.309 0 6.20078 0.468252 5.38369 1.30175C4.5666 2.13524 4.10756 3.2657 4.10756 4.44444C4.10756 5.62318 4.5666 6.75365 5.38369 7.58714C6.20078 8.42064 7.309 8.88889 8.46454 8.88889ZM8.46454 7.77778C8.03541 7.77778 7.61049 7.69156 7.21403 7.52404C6.81757 7.35653 6.45734 7.111 6.1539 6.80147C5.85047 6.49194 5.60977 6.12447 5.44555 5.72006C5.28133 5.31564 5.19681 4.88218 5.19681 4.44444C5.19681 4.00671 5.28133 3.57325 5.44555 3.16883C5.60977 2.76441 5.85047 2.39695 6.1539 2.08742C6.45734 1.77789 6.81757 1.53236 7.21403 1.36485C7.61049 1.19733 8.03541 1.11111 8.46454 1.11111C9.33119 1.11111 10.1624 1.4623 10.7752 2.08742C11.388 2.71254 11.7323 3.56039 11.7323 4.44444C11.7323 5.3285 11.388 6.17635 10.7752 6.80147C10.1624 7.42659 9.33119 7.77778 8.46454 7.77778ZM21.5355 8.88889C22.691 8.88889 23.7992 8.42064 24.6163 7.58714C25.4334 6.75365 25.8924 5.62318 25.8924 4.44444C25.8924 3.2657 25.4334 2.13524 24.6163 1.30175C23.7992 0.468252 22.691 0 21.5355 0C20.3799 0 19.2717 0.468252 18.4546 1.30175C17.6375 2.13524 17.1785 3.2657 17.1785 4.44444C17.1785 5.62318 17.6375 6.75365 18.4546 7.58714C19.2717 8.42064 20.3799 8.88889 21.5355 8.88889ZM21.5355 7.77778C21.1063 7.77778 20.6814 7.69156 20.285 7.52404C19.8885 7.35653 19.5283 7.111 19.2248 6.80147C18.9214 6.49194 18.6807 6.12447 18.5165 5.72006C18.3523 5.31564 18.2677 4.88218 18.2677 4.44444C18.2677 4.00671 18.3523 3.57325 18.5165 3.16883C18.6807 2.76441 18.9214 2.39695 19.2248 2.08742C19.5283 1.77789 19.8885 1.53236 20.285 1.36485C20.6814 1.19733 21.1063 1.11111 21.5355 1.11111C22.4021 1.11111 23.2333 1.4623 23.8461 2.08742C24.4589 2.71254 24.8032 3.56039 24.8032 4.44444C24.8032 5.3285 24.4589 6.17635 23.8461 6.80147C23.2333 7.42659 22.4021 7.77778 21.5355 7.77778ZM19.357 13.3333C19.357 14.5121 18.8979 15.6425 18.0808 16.476C17.2638 17.3095 16.1555 17.7778 15 17.7778C13.8445 17.7778 12.7362 17.3095 11.9192 16.476C11.1021 15.6425 10.643 14.5121 10.643 13.3333C10.643 12.1546 11.1021 11.0241 11.9192 10.1906C12.7362 9.35714 13.8445 8.88889 15 8.88889C16.1555 8.88889 17.2638 9.35714 18.0808 10.1906C18.8979 11.0241 19.357 12.1546 19.357 13.3333ZM18.2677 13.3333C18.2677 12.4493 17.9235 11.6014 17.3106 10.9763C16.6978 10.3512 15.8667 10 15 10C14.1333 10 13.3022 10.3512 12.6894 10.9763C12.0765 11.6014 11.7323 12.4493 11.7323 13.3333C11.7323 14.2174 12.0765 15.0652 12.6894 15.6904C13.3022 16.3155 14.1333 16.6667 15 16.6667C15.8667 16.6667 16.6978 16.3155 17.3106 15.6904C17.9235 15.0652 18.2677 14.2174 18.2677 13.3333ZM6.55291 22.7833C6.51047 22.4349 6.5411 22.0813 6.64277 21.7459C6.74443 21.4104 6.91482 21.1009 7.14264 20.8377C7.37045 20.5745 7.6505 20.3638 7.96421 20.2193C8.27792 20.0749 8.61814 20.0002 8.96232 20H21.0355C21.3797 20.0002 21.7199 20.0749 22.0336 20.2193C22.3473 20.3638 22.6274 20.5745 22.8552 20.8377C23.083 21.1009 23.2534 21.4104 23.3551 21.7459C23.4567 22.0813 23.4874 22.4349 23.4449 22.7833C23.2007 24.7759 22.2514 26.6089 20.7755 27.9378C19.2997 29.2668 17.3988 30.0001 15.4303 30H14.5676C12.5992 29.9998 10.6986 29.2664 9.22296 27.9375C7.74733 26.6086 6.79823 24.7757 6.554 22.7833M8.96232 21.1111C8.15737 21.1111 7.53541 21.8311 7.63453 22.6456C7.84584 24.3693 8.66698 25.955 9.94364 27.1046C11.2203 28.2543 12.8646 28.8888 14.5676 28.8889H15.4303C17.1332 28.8888 18.7775 28.2543 20.0542 27.1046C21.3308 25.955 22.152 24.3693 22.3633 22.6456C22.3866 22.4535 22.3696 22.2587 22.3136 22.0738C22.2575 21.889 22.1636 21.7184 22.0381 21.5734C21.9126 21.4283 21.7583 21.3121 21.5855 21.2324C21.4126 21.1527 21.2252 21.1114 21.0355 21.1111H8.96232ZM24.6747 20.6356C24.505 20.2893 24.2895 19.9686 24.0342 19.6822C25.3174 19.2757 26.4587 18.5006 27.3214 17.4497C28.1841 16.3989 28.7317 15.1167 28.8988 13.7567C28.922 13.5647 28.9051 13.3698 28.849 13.1849C28.793 13.0001 28.6991 12.8295 28.5736 12.6845C28.448 12.5394 28.2938 12.4232 28.1209 12.3435C27.9481 12.2638 27.7606 12.2225 27.571 12.2222H20.8928C20.824 11.8427 20.72 11.4707 20.5824 11.1111H27.5721C27.9162 11.1113 28.2565 11.186 28.5702 11.3305C28.8839 11.4749 29.1639 11.6857 29.3917 11.9488C29.6196 12.212 29.7899 12.5216 29.8916 12.857C29.9933 13.1924 30.0239 13.546 29.9815 13.8944C29.7956 15.4088 29.2013 16.8408 28.2647 18.031C27.3281 19.2212 26.0861 20.1229 24.6768 20.6356M2.42686 11.1111H9.41654C9.28002 11.4667 9.1769 11.837 9.10719 12.2222H2.42686C1.62191 12.2222 0.999949 12.9422 1.09907 13.7567C1.2662 15.1168 1.81399 16.3991 2.6769 17.45C3.53981 18.5009 4.68128 19.2759 5.96472 19.6822C5.70902 19.9685 5.49314 20.2893 5.32316 20.6356C3.91393 20.1229 2.67187 19.2212 1.7353 18.031C0.798735 16.8408 0.204418 15.4088 0.0185406 13.8944C-0.023892 13.5461 0.00670671 13.1926 0.108311 12.8572C0.209914 12.5219 0.380204 12.2124 0.607902 11.9492C0.8356 11.6861 1.11551 11.4753 1.42909 11.3308C1.74267 11.1863 2.08277 11.1114 2.42686 11.1111Z" fill="#CEF1A3"/>
</svg>
