<svg width="37" height="38" viewBox="0 0 37 38" fill="none" xmlns="http://www.w3.org/2000/svg">
<path id="Vector" d="M10.8763 11.5463C12.2757 11.5463 13.6178 10.9792 14.6073 9.96985C15.5968 8.96047 16.1527 7.59146 16.1527 6.16399C16.1527 4.73651 15.5968 3.3675 14.6073 2.35812C13.6178 1.34875 12.2757 0.781685 10.8763 0.781685C9.47693 0.781685 8.13487 1.34875 7.14535 2.35812C6.15584 3.3675 5.59994 4.73651 5.59994 6.16399C5.59994 7.59146 6.15584 8.96047 7.14535 9.96985C8.13487 10.9792 9.47693 11.5463 10.8763 11.5463ZM10.8763 10.2007C10.3566 10.2007 9.84205 10.0963 9.36193 9.89343C8.88181 9.69057 8.44556 9.39323 8.07809 9.01838C7.71063 8.64354 7.41914 8.19853 7.22026 7.70877C7.02139 7.21902 6.91903 6.6941 6.91903 6.16399C6.91903 5.63388 7.02139 5.10896 7.22026 4.6192C7.41914 4.12944 7.71063 3.68443 8.07809 3.30959C8.44556 2.93475 8.88181 2.6374 9.36193 2.43454C9.84205 2.23167 10.3566 2.12726 10.8763 2.12726C11.9259 2.12726 12.9324 2.55256 13.6745 3.30959C14.4167 4.06662 14.8336 5.09338 14.8336 6.16399C14.8336 7.23459 14.4167 8.26135 13.6745 9.01838C12.9324 9.77542 11.9259 10.2007 10.8763 10.2007ZM26.7054 11.5463C28.1048 11.5463 29.4469 10.9792 30.4364 9.96985C31.4259 8.96047 31.9818 7.59146 31.9818 6.16399C31.9818 4.73651 31.4259 3.3675 30.4364 2.35812C29.4469 1.34875 28.1048 0.781685 26.7054 0.781685C25.3061 0.781685 23.964 1.34875 22.9745 2.35812C21.985 3.3675 21.4291 4.73651 21.4291 6.16399C21.4291 7.59146 21.985 8.96047 22.9745 9.96985C23.964 10.9792 25.3061 11.5463 26.7054 11.5463ZM26.7054 10.2007C26.1858 10.2007 25.6712 10.0963 25.1911 9.89343C24.7109 9.69057 24.2747 9.39323 23.9072 9.01838C23.5397 8.64354 23.2483 8.19853 23.0494 7.70877C22.8505 7.21902 22.7482 6.6941 22.7482 6.16399C22.7482 5.63388 22.8505 5.10896 23.0494 4.6192C23.2483 4.12944 23.5397 3.68443 23.9072 3.30959C24.2747 2.93475 24.7109 2.6374 25.1911 2.43454C25.6712 2.23167 26.1858 2.12726 26.7054 2.12726C27.755 2.12726 28.7615 2.55256 29.5037 3.30959C30.2458 4.06662 30.6627 5.09338 30.6627 6.16399C30.6627 7.23459 30.2458 8.26135 29.5037 9.01838C28.7615 9.77542 27.755 10.2007 26.7054 10.2007ZM24.0673 16.9286C24.0673 18.3561 23.5113 19.7251 22.5218 20.7344C21.5323 21.7438 20.1903 22.3109 18.7909 22.3109C17.3915 22.3109 16.0494 21.7438 15.0599 20.7344C14.0704 19.7251 13.5145 18.3561 13.5145 16.9286C13.5145 15.5011 14.0704 14.1321 15.0599 13.1227C16.0494 12.1133 17.3915 11.5463 18.7909 11.5463C20.1903 11.5463 21.5323 12.1133 22.5218 13.1227C23.5113 14.1321 24.0673 15.5011 24.0673 16.9286ZM22.7482 16.9286C22.7482 15.858 22.3312 14.8312 21.5891 14.0742C20.847 13.3172 19.8404 12.8919 18.7909 12.8919C17.7413 12.8919 16.7348 13.3172 15.9927 14.0742C15.2505 14.8312 14.8336 15.858 14.8336 16.9286C14.8336 17.9992 15.2505 19.026 15.9927 19.783C16.7348 20.54 17.7413 20.9653 18.7909 20.9653C19.8404 20.9653 20.847 20.54 21.5891 19.783C22.3312 19.026 22.7482 17.9992 22.7482 16.9286ZM8.56131 28.3727C8.50991 27.9508 8.54699 27.5225 8.67012 27.1163C8.79324 26.7101 8.99958 26.3352 9.27547 26.0165C9.55136 25.6978 9.8905 25.4426 10.2704 25.2677C10.6503 25.0928 11.0623 25.0022 11.4791 25.002H26.1C26.5168 25.0022 26.9288 25.0928 27.3087 25.2677C27.6886 25.4426 28.0278 25.6978 28.3036 26.0165C28.5795 26.3352 28.7859 26.7101 28.909 27.1163C29.0321 27.5225 29.0692 27.9508 29.0178 28.3727C28.722 30.7858 27.5725 33.0056 25.7852 34.6149C23.9979 36.2242 21.6959 37.1123 19.3119 37.1122H18.2672C15.8834 37.112 13.5818 36.2238 11.7948 34.6145C10.0078 33.0051 8.85839 30.7855 8.56263 28.3727M11.4791 26.3476C10.5043 26.3476 9.75113 27.2195 9.87117 28.2059C10.1271 30.2933 11.1215 32.2136 12.6675 33.6059C14.2136 34.9981 16.2049 35.7665 18.2672 35.7666H19.3119C21.3742 35.7665 23.3655 34.9981 24.9116 33.6059C26.4576 32.2136 27.452 30.2933 27.7079 28.2059C27.7361 27.9733 27.7156 27.7373 27.6477 27.5135C27.5798 27.2897 27.4661 27.0831 27.3141 26.9074C27.1621 26.7317 26.9753 26.591 26.766 26.4945C26.5567 26.398 26.3297 26.3479 26.1 26.3476H11.4791ZM30.5071 25.7717C30.3016 25.3524 30.0406 24.964 29.7314 24.6172C31.2855 24.1249 32.6675 23.1862 33.7123 21.9136C34.757 20.641 35.4202 19.0883 35.6225 17.4413C35.6507 17.2087 35.6302 16.9727 35.5623 16.7489C35.4944 16.5251 35.3807 16.3185 35.2287 16.1428C35.0767 15.9671 34.8899 15.8264 34.6805 15.7299C34.4712 15.6334 34.2442 15.5833 34.0145 15.583H25.9272C25.8438 15.1234 25.7179 14.6728 25.5512 14.2374H34.0159C34.4327 14.2376 34.8447 14.3282 35.2246 14.5031C35.6045 14.678 35.9436 14.9332 36.2195 15.2519C36.4954 15.5706 36.7018 15.9455 36.8249 16.3517C36.948 16.7579 36.9851 17.1862 36.9337 17.6081C36.7086 19.442 35.9889 21.1762 34.8547 22.6176C33.7205 24.0589 32.2163 25.1508 30.5097 25.7717M3.56458 14.2374H12.0292C11.8639 14.668 11.739 15.1165 11.6546 15.583H3.56458C2.58977 15.583 1.83657 16.4549 1.9566 17.4413C2.159 19.0885 2.82239 20.6413 3.86739 21.9139C4.91238 23.1866 6.29473 24.1251 7.84899 24.6172C7.53933 24.9639 7.2779 25.3523 7.07205 25.7717C5.36545 25.1508 3.8613 24.0589 2.72709 22.6176C1.59289 21.1762 0.873165 19.442 0.648063 17.6081C0.596677 17.1863 0.633732 16.7581 0.756776 16.352C0.87982 15.9459 1.08604 15.5711 1.36179 15.2524C1.63754 14.9337 1.97651 14.6785 2.35626 14.5035C2.73602 14.3285 3.14788 14.2378 3.56458 14.2374Z" fill="#B9D9EC"/>
</svg>
