<svg width="38" height="38" viewBox="0 0 38 38" fill="none" xmlns="http://www.w3.org/2000/svg">
<g id="weui:discover-outlined">
<path id="Vector" fill-rule="evenodd" clip-rule="evenodd" d="M19.0196 32.2681C22.5526 32.2681 25.9409 30.8647 28.4391 28.3665C30.9373 25.8683 32.3408 22.48 32.3408 18.947C32.3408 15.414 30.9373 12.0257 28.4391 9.52745C25.9409 7.02924 22.5526 5.62576 19.0196 5.62576C15.4866 5.62576 12.0983 7.02924 9.60005 9.52745C7.10184 12.0257 5.69836 15.414 5.69836 18.947C5.69836 22.48 7.10184 25.8683 9.60005 28.3665C12.0983 30.8647 15.4866 32.2681 19.0196 32.2681ZM19.0196 34.0847C10.659 34.0847 3.88184 27.3075 3.88184 18.947C3.88184 10.5864 10.659 3.80923 19.0196 3.80923C27.3801 3.80923 34.1573 10.5864 34.1573 18.947C34.1573 27.3075 27.3801 34.0847 19.0196 34.0847ZM17.692 17.6194L14.8824 23.0841L20.3471 20.2745L23.1567 14.8098L17.692 17.6194ZM16.3447 16.2721L25.2624 11.6854C25.4049 11.6118 25.5672 11.5854 25.7257 11.61C25.8842 11.6346 26.0309 11.709 26.1444 11.8223C26.2579 11.9357 26.3325 12.0822 26.3573 12.2407C26.3822 12.3992 26.356 12.5615 26.2826 12.7042L21.6959 21.6233L12.7768 26.21C12.6341 26.284 12.4715 26.3106 12.3127 26.286C12.1538 26.2614 12.0069 26.1869 11.8933 26.0732C11.7796 25.9596 11.7051 25.8127 11.6805 25.6539C11.6559 25.495 11.6825 25.3325 11.7565 25.1898L16.3432 16.2706L16.3447 16.2721Z" fill="white"/>
</g>
</svg>
