<svg width="28" height="28" viewBox="0 0 28 28" fill="none" xmlns="http://www.w3.org/2000/svg">
<g id="iconamoon:profile-light">
<g id="Group">
<path id="Vector" d="M4.66675 21C4.66675 19.7624 5.15841 18.5754 6.03358 17.7002C6.90875 16.825 8.09574 16.3334 9.33341 16.3334H18.6667C19.9044 16.3334 21.0914 16.825 21.9666 17.7002C22.8417 18.5754 23.3334 19.7624 23.3334 21C23.3334 21.6189 23.0876 22.2124 22.65 22.65C22.2124 23.0875 21.6189 23.3334 21.0001 23.3334H7.00008C6.38124 23.3334 5.78775 23.0875 5.35017 22.65C4.91258 22.2124 4.66675 21.6189 4.66675 21Z" stroke="#F5F5F5" stroke-width="1.69048" stroke-linejoin="round"/>
<path id="Vector_2" d="M14 11.6667C15.933 11.6667 17.5 10.0997 17.5 8.16669C17.5 6.23369 15.933 4.66669 14 4.66669C12.067 4.66669 10.5 6.23369 10.5 8.16669C10.5 10.0997 12.067 11.6667 14 11.6667Z" stroke="#F5F5F5" stroke-width="1.69048"/>
</g>
</g>
</svg>
