<svg width="30" height="30" viewBox="0 0 30 30" fill="none" xmlns="http://www.w3.org/2000/svg">
<g id="material-symbols:local-fire-department-outline-rounded">
<path id="Vector" d="M15 27.5C12.2083 27.5 9.84375 26.5312 7.90625 24.5938C5.96875 22.6562 5 20.2917 5 17.5C5 15.1458 5.69792 12.8854 7.09375 10.7188C8.48958 8.55208 10.4062 6.65625 12.8437 5.03125C13.3021 4.71875 13.7758 4.70292 14.265 4.98375C14.7542 5.26458 14.9992 5.68667 15 6.25V7.875C15 8.58333 15.245 9.17708 15.735 9.65625C16.225 10.1354 16.8237 10.375 17.5312 10.375C17.8854 10.375 18.2242 10.2967 18.5475 10.14C18.8708 9.98333 19.1571 9.75958 19.4062 9.46875C19.5729 9.26042 19.7867 9.13042 20.0475 9.07875C20.3083 9.02708 20.5529 9.08417 20.7812 9.25C22.0938 10.1875 23.125 11.3854 23.875 12.8438C24.625 14.3021 25 15.8542 25 17.5C25 20.2917 24.0312 22.6562 22.0938 24.5938C20.1562 26.5312 17.7917 27.5 15 27.5ZM7.5 17.5C7.5 18.5833 7.71875 19.6096 8.15625 20.5787C8.59375 21.5479 9.21875 22.3967 10.0312 23.125C10.0104 23.0208 10 22.9271 10 22.8438V22.5625C10 21.8958 10.125 21.2708 10.375 20.6875C10.625 20.1042 10.9896 19.5729 11.4688 19.0938L15 15.625L18.5312 19.0938C19.0104 19.5729 19.375 20.1042 19.625 20.6875C19.875 21.2708 20 21.8958 20 22.5625V22.8438C20 22.9271 19.9896 23.0208 19.9688 23.125C20.7812 22.3958 21.4062 21.5471 21.8438 20.5787C22.2812 19.6104 22.5 18.5842 22.5 17.5C22.5 16.4583 22.3075 15.4738 21.9225 14.5463C21.5375 13.6188 20.98 12.7908 20.25 12.0625C19.8333 12.3333 19.3958 12.5367 18.9375 12.6725C18.4792 12.8083 18.0104 12.8758 17.5312 12.875C16.2396 12.875 15.1196 12.4479 14.1712 11.5937C13.2229 10.7396 12.6767 9.6875 12.5325 8.4375C10.9075 9.8125 9.6625 11.2762 8.7975 12.8287C7.9325 14.3812 7.5 15.9383 7.5 17.5ZM15 19.125L13.2188 20.875C12.9896 21.1042 12.8125 21.3646 12.6875 21.6563C12.5625 21.9479 12.5 22.25 12.5 22.5625C12.5 23.2292 12.7446 23.8021 13.2337 24.2812C13.7229 24.7604 14.3117 25 15 25C15.6883 25 16.2767 24.7604 16.765 24.2812C17.2533 23.8021 17.4983 23.2292 17.5 22.5625C17.5 22.2292 17.4375 21.9221 17.3125 21.6413C17.1875 21.3604 17.0104 21.105 16.7812 20.875L15 19.125Z" fill="#F1A3A3"/>
</g>
</svg>
