<svg width="37" height="38" viewBox="0 0 37 38" fill="none" xmlns="http://www.w3.org/2000/svg">
<g id="iconamoon:home-thin">
<path id="Vector" d="M29.5185 15.9194C29.5185 15.7187 29.4388 15.5262 29.2968 15.3842C29.1549 15.2423 28.9624 15.1625 28.7616 15.1625C28.5609 15.1625 28.3684 15.2423 28.2264 15.3842C28.0845 15.5262 28.0048 15.7187 28.0048 15.9194H29.5185ZM8.32572 15.9194C8.32572 15.7187 8.24598 15.5262 8.10403 15.3842C7.96209 15.2423 7.76957 15.1625 7.56883 15.1625C7.3681 15.1625 7.17558 15.2423 7.03363 15.3842C6.89169 15.5262 6.81195 15.7187 6.81195 15.9194H8.32572ZM31.2533 19.4828C31.3954 19.625 31.5882 19.7048 31.7892 19.7048C31.9902 19.7048 32.1829 19.625 32.3251 19.4828C32.4672 19.3407 32.547 19.1479 32.547 18.947C32.547 18.746 32.4672 18.5532 32.3251 18.4111L31.2533 19.4828ZM18.1652 5.32301L18.7011 4.78713C18.6308 4.71664 18.5473 4.66072 18.4553 4.62256C18.3634 4.58441 18.2648 4.56477 18.1652 4.56477C18.0657 4.56477 17.9671 4.58441 17.8752 4.62256C17.7832 4.66072 17.6997 4.71664 17.6294 4.78713L18.1652 5.32301ZM4.00541 18.4111C3.86329 18.5532 3.78345 18.746 3.78345 18.947C3.78345 19.1479 3.86329 19.3407 4.00541 19.4828C4.14754 19.625 4.3403 19.7048 4.54129 19.7048C4.74228 19.7048 4.93504 19.625 5.07716 19.4828L4.00541 18.4111ZM10.5964 33.3278H25.7341V31.814H10.5964V33.3278ZM29.5185 29.5434V15.9194H28.0048V29.5434H29.5185ZM8.32572 29.5434V15.9194H6.81195V29.5434H8.32572ZM32.3251 18.4111L18.7011 4.78713L17.6294 5.85888L31.2533 19.4828L32.3251 18.4111ZM17.6294 4.78713L4.00541 18.4111L5.07716 19.4828L18.7011 5.85888L17.6294 4.78713ZM25.7341 33.3278C26.7378 33.3278 27.7004 32.9291 28.4101 32.2194C29.1198 31.5096 29.5185 30.5471 29.5185 29.5434H28.0048C28.0048 30.1456 27.7655 30.7231 27.3397 31.149C26.9139 31.5748 26.3363 31.814 25.7341 31.814V33.3278ZM10.5964 31.814C9.99416 31.814 9.41661 31.5748 8.99078 31.149C8.56495 30.7231 8.32572 30.1456 8.32572 29.5434H6.81195C6.81195 30.5471 7.21066 31.5096 7.92038 32.2194C8.6301 32.9291 9.59268 33.3278 10.5964 33.3278V31.814Z" fill="#B9D9EC"/>
</g>
</svg>
