<svg width="247" height="44" viewBox="0 0 247 44" fill="none" xmlns="http://www.w3.org/2000/svg">
<g id="logoABC 1">
<path id="Vector" d="M125.22 8.53V17.57H123.95V8.53H121.52V7.36H127.64V8.53H125.22Z" fill="#A6A3F1"/>
<path id="Vector_2" d="M132.52 11.48H137.38V7.36H138.65V17.57H137.38V12.67H132.52V17.57H131.24V7.36H132.52V11.48Z" fill="#A6A3F1"/>
<path id="Vector_3" d="M143.2 17.57V7.36H148.68V8.53H144.47V11.38H148.56V12.55H144.47V16.41H148.68V17.57H143.2Z" fill="#A6A3F1"/>
<path id="Vector_4" d="M165.71 15H161L159.84 17.56H158.5L163.37 6.92L168.24 17.56H166.87L165.71 15ZM165.18 13.84L163.37 9.71L161.56 13.84H165.19H165.18Z" fill="#A6A3F1"/>
<path id="Vector_5" d="M176.6 17.79L173.54 10.83H173.51L172.32 17.57H171.01L173.09 6.93L176.6 14.97L180.11 6.93L182.19 17.57H180.88L179.69 10.83H179.66L176.6 17.79Z" fill="#A6A3F1"/>
<path id="Vector_6" d="M186.04 17.57V7.36H191.52V8.53H187.31V11.38H191.4V12.55H187.31V16.41H191.52V17.57H186.04Z" fill="#A6A3F1"/>
<path id="Vector_7" d="M198.92 13.13L202.14 17.57H200.6L197.6 13.25H197.07V17.57H195.8V7.36H197.34H198.28C198.573 7.38144 198.864 7.42489 199.15 7.49C199.462 7.55319 199.762 7.66453 200.04 7.82C200.459 8.05495 200.805 8.40099 201.04 8.82C201.277 9.25225 201.4 9.7372 201.4 10.23C201.415 10.9315 201.173 11.6142 200.72 12.15C200.276 12.683 199.64 13.0205 198.95 13.09M197.07 8.5V12.2H197.48C197.815 12.2036 198.149 12.1802 198.48 12.13C198.773 12.0835 199.059 11.9995 199.33 11.88C199.611 11.7656 199.846 11.5617 200 11.3C200.166 10.9939 200.246 10.6481 200.23 10.3C200.23 9.08 199.303 8.47 197.45 8.47H197.11L197.07 8.5Z" fill="#A6A3F1"/>
<path id="Vector_8" d="M207.09 7.36H205.82V17.57H207.09V7.36Z" fill="#A6A3F1"/>
<path id="Vector_9" d="M219.14 7.83V9.31C218.403 8.64775 217.441 8.29032 216.45 8.31C215.914 8.3021 215.382 8.40758 214.889 8.61954C214.396 8.8315 213.953 9.14517 213.59 9.54C213.21 9.92843 212.912 10.3883 212.711 10.8929C212.51 11.3975 212.411 11.9369 212.42 12.48C212.412 13.0191 212.51 13.5545 212.709 14.0555C212.908 14.5566 213.204 15.0135 213.58 15.4C213.941 15.7956 214.381 16.1099 214.873 16.3219C215.364 16.534 215.895 16.639 216.43 16.63C217.438 16.6319 218.409 16.2534 219.15 15.57V17.07C218.135 17.6562 216.957 17.8943 215.794 17.7481C214.631 17.6018 213.548 17.0792 212.71 16.26C212.203 15.78 211.803 15.1992 211.534 14.5551C211.265 13.911 211.135 13.2177 211.15 12.52C211.137 11.8079 211.271 11.1008 211.545 10.4433C211.818 9.78578 212.225 9.19218 212.74 8.7C213.242 8.19439 213.841 7.79554 214.501 7.52745C215.16 7.25935 215.868 7.12756 216.58 7.14C217.484 7.12428 218.375 7.36339 219.15 7.83" fill="#A6A3F1"/>
<path id="Vector_10" d="M229.49 15H224.81L223.65 17.56H222.28L227.15 6.92L232 17.57H230.63L229.49 15ZM229 13.85L227.19 9.72L225.38 13.85H229Z" fill="#A6A3F1"/>
<path id="Vector_11" d="M235.46 17.57V6.87L243.13 14.9V7.36H244.4V17.99L236.74 9.96V17.57H235.46Z" fill="#A6A3F1"/>
<path id="Vector_12" d="M126.24 34.7V24.49H127.49C127.963 24.4846 128.435 24.5248 128.9 24.61C129.308 24.6882 129.702 24.8263 130.07 25.02C130.437 25.2147 130.734 25.5188 130.92 25.89C131.132 26.3256 131.234 26.806 131.22 27.29C131.215 27.6889 131.112 28.0805 130.92 28.43C130.75 28.776 130.468 29.0544 130.12 29.22C130.705 29.3269 131.227 29.6523 131.58 30.13C131.958 30.6043 132.163 31.1935 132.16 31.8C132.191 32.2139 132.115 32.6289 131.94 33.0053C131.765 33.3816 131.496 33.7069 131.16 33.95C130.413 34.441 129.533 34.689 128.64 34.66H126.26L126.24 34.7ZM127.51 25.63V29H127.83C128.392 29.0325 128.952 28.9115 129.45 28.65C129.655 28.4945 129.815 28.288 129.915 28.0511C130.015 27.8142 130.051 27.5552 130.02 27.3C130.052 27.0486 130.017 26.7933 129.919 26.5598C129.82 26.3263 129.662 26.1228 129.46 25.97C128.967 25.7145 128.414 25.5971 127.86 25.63H127.51ZM127.51 30.03V33.56H128.51C130.117 33.56 130.92 32.96 130.92 31.76C130.928 31.4526 130.845 31.1498 130.68 30.89C130.524 30.6539 130.301 30.4694 130.04 30.36C129.774 30.2443 129.496 30.1604 129.21 30.11C128.911 30.0459 128.606 30.0091 128.3 30H127.51V30.03Z" fill="#A6A3F1"/>
<path id="Vector_13" d="M137.16 25.84C137.655 25.3447 138.243 24.9518 138.89 24.6838C139.536 24.4157 140.23 24.2778 140.93 24.2778C141.63 24.2778 142.324 24.4157 142.97 24.6838C143.617 24.9518 144.205 25.3447 144.7 25.84C145.197 26.3352 145.591 26.9235 145.86 27.5713C146.129 28.2191 146.267 28.9136 146.267 29.615C146.267 30.3164 146.129 31.0109 145.86 31.6587C145.591 32.3065 145.197 32.8948 144.7 33.39C143.682 34.3713 142.324 34.9197 140.91 34.9197C139.496 34.9197 138.138 34.3713 137.12 33.39C136.623 32.8948 136.229 32.3065 135.96 31.6587C135.691 31.0109 135.553 30.3164 135.553 29.615C135.553 28.9136 135.691 28.2191 135.96 27.5713C136.229 26.9235 136.623 26.3352 137.12 25.84M138.02 32.53C138.393 32.914 138.839 33.2194 139.332 33.4278C139.825 33.6363 140.355 33.7438 140.89 33.7438C141.425 33.7438 141.955 33.6363 142.448 33.4278C142.941 33.2194 143.387 32.914 143.76 32.53C144.156 32.1524 144.471 31.6976 144.684 31.1936C144.897 30.6896 145.005 30.1472 145 29.6C145.01 29.0606 144.913 28.5246 144.714 28.0232C144.515 27.5219 144.218 27.0652 143.84 26.68C143.064 25.9081 142.014 25.4748 140.92 25.4748C139.826 25.4748 138.776 25.9081 138 26.68C137.623 27.0656 137.326 27.5223 137.127 28.0235C136.928 28.5248 136.83 29.0607 136.84 29.6C136.83 30.1443 136.931 30.685 137.138 31.1888C137.344 31.6926 137.651 32.149 138.04 32.53" fill="#A6A3F1"/>
<path id="Vector_14" d="M151.08 25.84C151.575 25.3447 152.163 24.9518 152.81 24.6838C153.456 24.4157 154.15 24.2778 154.85 24.2778C155.55 24.2778 156.244 24.4157 156.89 24.6838C157.537 24.9518 158.125 25.3447 158.62 25.84C159.117 26.3352 159.511 26.9235 159.78 27.5713C160.049 28.2191 160.187 28.9136 160.187 29.615C160.187 30.3164 160.049 31.0109 159.78 31.6587C159.511 32.3065 159.117 32.8948 158.62 33.39C157.602 34.3713 156.244 34.9197 154.83 34.9197C153.416 34.9197 152.058 34.3713 151.04 33.39C150.543 32.8948 150.149 32.3065 149.88 31.6587C149.611 31.0109 149.473 30.3164 149.473 29.615C149.473 28.9136 149.611 28.2191 149.88 27.5713C150.149 26.9235 150.543 26.3352 151.04 25.84M151.94 32.53C152.313 32.914 152.759 33.2194 153.252 33.4278C153.745 33.6363 154.275 33.7438 154.81 33.7438C155.345 33.7438 155.875 33.6363 156.368 33.4278C156.861 33.2194 157.307 32.914 157.68 32.53C158.071 32.1498 158.38 31.6938 158.588 31.19C158.796 30.6861 158.899 30.1451 158.89 29.6C158.9 29.0607 158.802 28.5248 158.603 28.0235C158.404 27.5223 158.107 27.0656 157.73 26.68C156.954 25.9081 155.904 25.4748 154.81 25.4748C153.716 25.4748 152.666 25.9081 151.89 26.68C151.513 27.0656 151.216 27.5223 151.017 28.0235C150.818 28.5248 150.72 29.0607 150.73 29.6C150.72 30.1443 150.821 30.685 151.028 31.1888C151.234 31.6926 151.541 32.149 151.93 32.53" fill="#A6A3F1"/>
<path id="Vector_15" d="M165.41 28.92L169.74 24.49H171.41L166.82 29.08L171.49 34.7H169.77L165.92 29.95L165.41 30.44V34.7H164.14V24.49H165.41V28.92Z" fill="#A6A3F1"/>
<path id="Vector_16" d="M189 25V26.48C188.262 25.8178 187.301 25.4603 186.31 25.48C185.774 25.4721 185.241 25.5776 184.749 25.7895C184.256 26.0015 183.813 26.3152 183.45 26.71C182.702 27.5024 182.286 28.5506 182.286 29.64C182.286 30.7294 182.702 31.7776 183.45 32.57C183.81 32.9661 184.251 33.2807 184.742 33.4928C185.234 33.7049 185.765 33.8097 186.3 33.8C187.306 33.7861 188.27 33.3933 189 32.7V34.2C187.985 34.7862 186.807 35.0243 185.644 34.8781C184.481 34.7318 183.398 34.2092 182.56 33.39C182.053 32.91 181.653 32.3293 181.384 31.6851C181.115 31.041 180.985 30.3477 181 29.65C180.985 28.9387 181.118 28.232 181.39 27.5745C181.662 26.917 182.067 26.3231 182.58 25.83C183.082 25.3244 183.681 24.9255 184.341 24.6575C185 24.3894 185.708 24.2576 186.42 24.27C187.332 24.2644 188.226 24.5175 189 25Z" fill="#A6A3F1"/>
<path id="Vector_17" d="M193.25 34.7V24.49H198.73V25.66H194.52V28.52H198.61V29.68H194.52V33.54H198.73V34.7H193.25Z" fill="#A6A3F1"/>
<path id="Vector_18" d="M202.88 34.7V24.01L210.55 32.03V24.49H211.82V35.12L204.16 27.09V34.7H202.88Z" fill="#A6A3F1"/>
<path id="Vector_19" d="M219.09 25.66V34.7H217.82V25.66H215.39V24.49H221.51V25.66H219.09Z" fill="#A6A3F1"/>
<path id="Vector_20" d="M225.22 34.7V24.49H230.71V25.66H226.5V28.52H230.58V29.68H226.5V33.54H230.71V34.7H225.22Z" fill="#A6A3F1"/>
<path id="Vector_21" d="M238.11 30.26L241.33 34.7H239.79L236.79 30.38H236.26V34.7H235V24.49H236.54H237.48C237.773 24.512 238.064 24.5554 238.35 24.62C238.662 24.6838 238.962 24.7951 239.24 24.95C239.659 25.1854 240.005 25.5313 240.24 25.95C240.477 26.3822 240.6 26.8672 240.6 27.36C240.615 28.0615 240.373 28.7442 239.92 29.28C239.476 29.813 238.84 30.1504 238.15 30.22M236.3 25.59V29.29H236.71C237.045 29.2937 237.379 29.2703 237.71 29.22C238.003 29.1738 238.289 29.0897 238.56 28.97C238.833 28.8558 239.061 28.6556 239.21 28.4C239.377 28.0941 239.456 27.7481 239.44 27.4C239.44 26.18 238.513 25.57 236.66 25.57H236.32L236.3 25.59Z" fill="#A6A3F1"/>
<path id="Vector_22" d="M109.93 10.75H108.84V32H109.93V10.75Z" fill="#A6A3F1"/>
<path id="Vector_23" d="M52.43 26.79V17.66H56C58.37 17.9 59.1 18.31 60.1 19.21C60.5435 19.6368 60.8826 20.1603 61.0907 20.7396C61.2988 21.3189 61.3705 21.9385 61.3 22.55C61.2808 23.1838 61.1134 23.8042 60.8112 24.3616C60.5091 24.9191 60.0805 25.398 59.56 25.76C58.62 26.51 57.24 26.76 55.16 26.81H52.46M57.46 12.81C57.9026 12.3709 58.2459 11.842 58.4667 11.2589C58.6875 10.6758 58.7807 10.0522 58.74 9.43C58.7896 8.80853 58.6955 8.18398 58.4648 7.60476C58.2342 7.02555 57.8733 6.50723 57.41 6.09C56.3361 5.32463 55.0233 4.96982 53.71 5.09H52.43V13.89H53.56C54.9414 14.041 56.3307 13.6856 57.47 12.89M86.68 4.54C83.86 4.27 76.46 6.37 75.46 15.08C78.6573 15.0445 81.7488 16.2239 84.11 18.38L94.64 7.83C92.4271 5.85228 89.604 4.69131 86.64 4.54M31.92 19.45L27.43 9.18L22.76 19.43L31.92 19.45ZM75.55 27.26C74.0578 25.8434 72.8704 24.1372 72.0605 22.2458C71.2507 20.3543 70.8353 18.3175 70.84 16.26C70.8347 14.0847 71.2686 11.9307 72.1157 9.92715C72.9629 7.92358 74.2058 6.11166 75.77 4.6C75.77 4.6 66.27 14.15 65.67 14.71C64.9649 15.3829 64.2972 16.094 63.67 16.84C64.9655 18.2538 65.7137 20.0836 65.78 22C65.8909 24.16 65.1753 26.2812 63.7785 27.9325C62.3816 29.5837 60.4085 30.6412 58.26 30.89C56.2965 31.0866 54.323 31.1667 52.35 31.13H47.85V0.919998L37.32 11.43V20.83L42 31.08H37L33.83 23.77H20.86L17.49 31.11H12.59L26.59 0.979998L16.08 11.43L2 41.61H6.9L14.2 34.28H23.2L26.34 41.62H31.34L37.34 35.68V41.62H43.12C45.2 41.62 50.12 41.83 52.42 39.31L60.88 30.88C61.596 33.4486 62.9755 35.7835 64.88 37.65C68 40.8 71.27 41.81 75.3 42.19C78.3363 42.1894 81.3253 41.437 84 40L94.66 29.36C92.2735 30.7593 89.575 31.5397 86.81 31.63C84.7336 31.7072 82.6633 31.3584 80.7268 30.6051C78.7902 29.8519 77.0285 28.71 75.55 27.25" fill="#A6A3F1"/>
</g>
</svg>
