<svg width="42" height="41" viewBox="0 0 42 41" fill="none" xmlns="http://www.w3.org/2000/svg">
<g id="material-symbols:rocket-outline" clip-path="url(#clip0_43_208)">
<path id="Vector" d="M10.1693 22.1079L12.5436 22.9523C12.7759 22.3941 13.0261 21.8385 13.2939 21.2855C13.5618 20.7325 13.855 20.202 14.1735 19.694L12.5064 19.4781L10.1693 22.1079ZM14.53 24.3221L18.0658 27.4644C18.8548 27.1108 19.7065 26.5826 20.6212 25.8798C21.5358 25.177 22.3862 24.3833 23.1723 23.4987C24.4685 22.0402 25.4528 20.4431 26.1251 18.7075C26.7974 16.9719 27.0502 15.3967 26.8837 13.9819C25.4596 13.982 23.925 14.4181 22.2798 15.2902C20.6347 16.1623 19.1642 17.3273 17.8685 18.7852C17.083 19.6692 16.3946 20.6069 15.8036 21.5983C15.2125 22.5898 14.788 23.4977 14.53 24.3221ZM20.2258 21.4735C19.7397 21.0414 19.4773 20.4987 19.4388 19.8453C19.4003 19.192 19.5971 18.6217 20.0291 18.1344C20.4611 17.6471 21.0041 17.385 21.6581 17.3481C22.3121 17.3113 22.8821 17.5078 23.3682 17.9376C23.8542 18.3675 24.1166 18.9107 24.1553 19.5674C24.194 20.2241 23.9972 20.7939 23.5649 21.2767C23.1327 21.7595 22.5897 22.0222 21.936 22.0646C21.2823 22.107 20.7123 21.91 20.2258 21.4735ZM20.7768 31.5349L23.1139 28.9051L22.7038 27.2749C22.2373 27.6514 21.7452 28.0052 21.2275 28.3361C20.7098 28.6671 20.1871 28.9804 19.6595 29.2762L20.7768 31.5349ZM28.8869 11.7278C29.4027 14.0847 29.3061 16.4116 28.5971 18.7084C27.8881 21.0052 26.5709 23.2362 24.6457 25.4014L25.4022 28.2886C25.5086 28.6733 25.5141 29.0605 25.4187 29.4504C25.3233 29.8402 25.1443 30.1822 24.8819 30.4763L20.2273 35.7138L17.4007 30.0376L12.0528 25.2848L6.08388 23.1445L10.7385 17.907C11.0003 17.6123 11.3192 17.3947 11.6952 17.2542C12.0711 17.1136 12.456 17.0734 12.8499 17.1334L15.806 17.5455C17.7307 15.3798 19.7919 13.81 21.9895 12.8362C24.1871 11.8623 26.4862 11.4928 28.8869 11.7278Z" fill="#1C042E"/>
</g>
<defs>
<clipPath id="clip0_43_208">
<rect width="28.3823" height="28.3823" fill="white" transform="translate(19.8309 0.554916) rotate(41.6277)"/>
</clipPath>
</defs>
</svg>
