<svg width="38" height="38" viewBox="0 0 38 38" fill="none" xmlns="http://www.w3.org/2000/svg">
<g id="iconamoon:profile-light">
<g id="Group">
<path id="Vector" d="M7.02991 28.0296C7.02991 26.4237 7.66785 24.8835 8.8034 23.748C9.93895 22.6124 11.4791 21.9745 13.085 21.9745H25.1952C26.8011 21.9745 28.3412 22.6124 29.4768 23.748C30.6123 24.8835 31.2503 26.4237 31.2503 28.0296C31.2503 28.8325 30.9313 29.6026 30.3635 30.1704C29.7957 30.7382 29.0257 31.0571 28.2227 31.0571H10.0575C9.2545 31.0571 8.48443 30.7382 7.91665 30.1704C7.34888 29.6026 7.02991 28.8325 7.02991 28.0296Z" stroke="#B9D9EC" stroke-width="1.81653" stroke-linejoin="round"/>
<path id="Vector_2" d="M19.1401 15.9194C21.6482 15.9194 23.6814 13.8862 23.6814 11.3781C23.6814 8.86999 21.6482 6.83677 19.1401 6.83677C16.632 6.83677 14.5988 8.86999 14.5988 11.3781C14.5988 13.8862 16.632 15.9194 19.1401 15.9194Z" stroke="#B9D9EC" stroke-width="1.81653"/>
</g>
</g>
</svg>
