<svg width="170" height="30" viewBox="0 0 170 30" fill="none" xmlns="http://www.w3.org/2000/svg">
<g id="rating">
<path id="Star 12" d="M13.1109 5.43478C13.7335 3.64366 16.2665 3.64366 16.8891 5.43478L18.0698 8.83133C18.3444 9.62147 19.0818 10.1572 19.9181 10.1743L23.5133 10.2475C25.4091 10.2862 26.1919 12.6952 24.6808 13.8408L21.8154 16.0133C21.1488 16.5187 20.8671 17.3855 21.1093 18.1862L22.1506 21.628C22.6997 23.443 20.6504 24.9319 19.094 23.8488L16.1424 21.7949C15.4557 21.3171 14.5443 21.3171 13.8576 21.7949L10.906 23.8488C9.34955 24.9319 7.30026 23.443 7.84937 21.628L8.89065 18.1862C9.13289 17.3855 8.85123 16.5187 8.18463 16.0133L5.31916 13.8408C3.80809 12.6952 4.59086 10.2862 6.4867 10.2475L10.0819 10.1743C10.9182 10.1572 11.6556 9.62147 11.9302 8.83133L13.1109 5.43478Z" fill="#ECE3B9"/>
<path id="Star 8" d="M48.1109 5.43478C48.7335 3.64366 51.2665 3.64366 51.8891 5.43478L53.0698 8.83133C53.3444 9.62147 54.0818 10.1572 54.9181 10.1743L58.5133 10.2475C60.4091 10.2862 61.1919 12.6952 59.6808 13.8408L56.8154 16.0133C56.1488 16.5187 55.8671 17.3855 56.1093 18.1862L57.1506 21.628C57.6997 23.443 55.6504 24.9319 54.094 23.8488L51.1424 21.7949C50.4557 21.3171 49.5443 21.3171 48.8576 21.7949L45.906 23.8488C44.3496 24.9319 42.3003 23.443 42.8494 21.628L43.8907 18.1862C44.1329 17.3855 43.8512 16.5187 43.1846 16.0133L40.3192 13.8408C38.8081 12.6952 39.5909 10.2862 41.4867 10.2475L45.0819 10.1743C45.9182 10.1572 46.6556 9.62147 46.9302 8.83133L48.1109 5.43478Z" fill="#ECE3B9"/>
<path id="Star 9" d="M83.1109 5.43478C83.7335 3.64366 86.2665 3.64366 86.8891 5.43478L88.0698 8.83133C88.3444 9.62147 89.0818 10.1572 89.9181 10.1743L93.5133 10.2475C95.4091 10.2862 96.1919 12.6952 94.6808 13.8408L91.8154 16.0133C91.1488 16.5187 90.8671 17.3855 91.1093 18.1862L92.1506 21.628C92.6997 23.443 90.6504 24.9319 89.094 23.8488L86.1424 21.7949C85.4557 21.3171 84.5443 21.3171 83.8576 21.7949L80.906 23.8488C79.3496 24.9319 77.3003 23.443 77.8494 21.628L78.8907 18.1862C79.1329 17.3855 78.8512 16.5187 78.1846 16.0133L75.3192 13.8408C73.8081 12.6952 74.5909 10.2862 76.4867 10.2475L80.0819 10.1743C80.9182 10.1572 81.6556 9.62147 81.9302 8.83133L83.1109 5.43478Z" fill="#ECE3B9"/>
<path id="Star 10" d="M118.111 5.43478C118.733 3.64366 121.267 3.64366 121.889 5.43478L123.07 8.83133C123.344 9.62147 124.082 10.1572 124.918 10.1743L128.513 10.2475C130.409 10.2862 131.192 12.6952 129.681 13.8408L126.815 16.0133C126.149 16.5187 125.867 17.3855 126.109 18.1862L127.151 21.628C127.7 23.443 125.65 24.9319 124.094 23.8488L121.142 21.7949C120.456 21.3171 119.544 21.3171 118.858 21.7949L115.906 23.8488C114.35 24.9319 112.3 23.443 112.849 21.628L113.891 18.1862C114.133 17.3855 113.851 16.5187 113.185 16.0133L110.319 13.8408C108.808 12.6952 109.591 10.2862 111.487 10.2475L115.082 10.1743C115.918 10.1572 116.656 9.62147 116.93 8.83133L118.111 5.43478Z" fill="#ECE3B9"/>
<path id="Star 11" d="M156.417 5.59894L157.597 8.99549C157.941 9.98317 158.863 10.6528 159.908 10.6741L163.503 10.7474C164.925 10.7764 165.512 12.5832 164.379 13.4424L161.513 15.6149C160.68 16.2466 160.328 17.3301 160.631 18.331L161.672 21.7728C162.084 23.1341 160.547 24.2507 159.38 23.4384L156.428 21.3845C155.57 20.7873 154.43 20.7873 153.572 21.3845L150.62 23.4384C149.453 24.2507 147.916 23.1341 148.328 21.7728L149.369 18.331C149.672 17.3301 149.32 16.2466 148.487 15.6149L145.621 13.4424C144.488 12.5832 145.075 10.7764 146.497 10.7474L150.092 10.6741C151.137 10.6528 152.059 9.98317 152.403 8.99549L153.583 5.59894C154.05 4.2556 155.95 4.2556 156.417 5.59894Z" stroke="#ECE3B9"/>
</g>
</svg>
