<svg width="23" height="24" viewBox="0 0 23 24" fill="none" xmlns="http://www.w3.org/2000/svg">
<g id="carbon:favorite">
<path id="Vector" d="M16.1359 4.8125C16.6592 4.81206 17.1774 4.91609 17.6599 5.1185C18.1425 5.32092 18.5798 5.61763 18.9462 5.99125C19.7012 6.75771 20.1244 7.7904 20.1244 8.86625C20.1244 9.94211 19.7012 10.9748 18.9462 11.7413L11.5 19.2809L4.05374 11.7413C3.29875 10.9748 2.87556 9.94211 2.87556 8.86625C2.87556 7.7904 3.29875 6.75771 4.05374 5.99125C4.42037 5.6179 4.85772 5.32134 5.34024 5.1189C5.82276 4.91646 6.34079 4.81219 6.86405 4.81219C7.38732 4.81219 7.90535 4.91646 8.38787 5.1189C8.87039 5.32134 9.30774 5.6179 9.67437 5.99125L11.5 7.86L13.3184 6.00563C13.6837 5.62755 14.1215 5.32703 14.6056 5.12202C15.0897 4.91702 15.6102 4.81175 16.1359 4.8125ZM16.1359 3.375C15.4212 3.3744 14.7136 3.51649 14.0545 3.79296C13.3954 4.06942 12.7982 4.47469 12.2978 4.985L11.5 5.79L10.7022 4.985C10.2012 4.47561 9.60378 4.07105 8.94483 3.79489C8.28587 3.51873 7.57854 3.37651 6.86405 3.37651C6.14957 3.37651 5.44224 3.51873 4.78328 3.79489C4.12433 4.07105 3.52693 4.47561 3.02593 4.985C2.00665 6.02261 1.43555 7.41895 1.43555 8.87344C1.43555 10.3279 2.00665 11.7243 3.02593 12.7619L11.5 21.3438L19.9741 12.7619C20.9933 11.7243 21.5644 10.3279 21.5644 8.87344C21.5644 7.41895 20.9933 6.02261 19.9741 4.985C19.4729 4.47566 18.8756 4.07103 18.2166 3.79464C17.5577 3.51824 16.8505 3.3756 16.1359 3.375Z" fill="white"/>
</g>
</svg>
