<svg width="38" height="38" viewBox="0 0 38 38" fill="none" xmlns="http://www.w3.org/2000/svg">
<g id="iconamoon:search-thin">
<path id="Vector" d="M32.7163 32.5709L26.142 25.9966M26.142 25.9966C27.2666 24.872 28.1587 23.537 28.7673 22.0677C29.3759 20.5983 29.6891 19.0235 29.6891 17.4332C29.6891 15.8428 29.3759 14.268 28.7673 12.7987C28.1587 11.3294 27.2666 9.99433 26.142 8.86977C25.0175 7.7452 23.6824 6.85315 22.2131 6.24454C20.7438 5.63593 19.169 5.32269 17.5786 5.32269C15.9883 5.32269 14.4135 5.63593 12.9441 6.24454C11.4748 6.85315 10.1398 7.7452 9.01522 8.86977C6.74406 11.1409 5.46814 14.2213 5.46814 17.4332C5.46814 20.6451 6.74406 23.7254 9.01522 25.9966C11.2864 28.2677 14.3667 29.5437 17.5786 29.5437C20.7905 29.5437 23.8709 28.2677 26.142 25.9966Z" stroke="#B9D9EC" stroke-width="1.21102" stroke-linecap="round" stroke-linejoin="round"/>
</g>
</svg>
